Coordinates
version=1
nRows=10
nColumns=33
inDegrees=yes

Units are S.I. units (second, meters, Newtons, ...)
Angles are in degrees.

endheader
time	ground_thorax_rot_x	ground_thorax_rot_y	ground_thorax_rot_z	ground_thorax_tx	ground_thorax_ty	ground_thorax_tz	clav_prot_r	clav_elev_r	scapula_abduction_r	scapula_elevation_r	scapula_upward_rot_r	scapula_winging_r	shoulder_elv_r	plane_of_elev_r	axial_rot_r	elbow_flexion_r	pro_sup_r	wrist_flex_r	wrist_dev_r	clav_prot_l	clav_elev_l	scapula_abduction_l	scapula_elevation_l	scapula_upward_rot_l	scapula_winging_l	shoulder_elv_l	plane_of_elev_l	axial_rot_l	elbow_flexion_l	pro_sup_l	wrist_flex_l	wrist_dev_l
      5.60000000	     38.25244710	      5.48865926	     12.81099796	   -220.49415539	    875.47750862	     -4.14440378	     12.90297795	     36.37004251	     34.93992050	     45.00000000	    -45.00000000	   3154.04408318	  -2631.80554126	    148.19470180	   -110.95939523	   -344.32836824	     50.77502268	     18.81184411	      5.59737611	     12.38459751	    -45.00000000	    -36.55631516	     45.00000000	    -45.00000000	  -2418.97066130	   -643.01382018	     15.87823373	    -64.02856269	     11.97670916	     43.94421343	      6.86502637	    -22.69015005
      5.61000000	     38.24415516	      5.35874362	     12.81995557	   -219.35838495	    876.80130811	     -4.18811672	     12.92174711	     36.37798468	     35.25582974	     45.00000000	    -45.00000000	   3153.89189631	  -2631.68831845	    148.09422219	   -111.25132581	   -344.14162463	     51.89971058	     18.81549783	      5.48827327	     12.38237719	    -45.00000000	    -36.58174842	     45.00000000	    -45.00000000	  -2418.90599017	   -642.91363977	     16.07241964	    -63.50119634	     12.10343996	     44.39795977	      6.74804344	    -22.70491377
      5.62000000	     38.28232083	      5.26239609	     12.68208726	   -218.14139749	    878.25343535	     -4.23110491	     12.92883341	     36.45677203	     35.51351015	     45.00000000	    -44.84482467	   3153.77924155	  -2631.57953928	    148.11992977	   -111.46529250	   -343.99973930	     53.05525541	     18.82869410	      5.39123671	     12.27713437	    -45.00000000	    -36.63171427	     45.00000000	    -45.00000000	  -2419.03127294	   -642.78157088	     16.30363567	    -62.84993745	     12.19737185	     44.83771775	      6.64148975	    -22.72259676
      5.63000000	     38.28186683	      5.15137600	     12.63219356	   -216.83619403	    879.83790840	     -4.26814498	     12.85279744	     36.52403824	     35.66408236	     45.00000000	    -44.44718821	   3153.69011755	  -2631.45611789	    148.11419445	   -111.67802649	   -343.81239268	     54.21552522	     18.82645750	      5.27308775	     12.27029856	    -45.00000000	    -36.74704010	     45.00000000	    -45.00000000	  -2419.04397967	   -642.66275548	     16.52085694	    -62.11484038	     12.29314385	     45.26461227	      6.54504470	    -22.75106970
      5.64000000	     38.35515714	      4.92273119	     12.47075680	   -215.43956361	    881.54706199	     -4.29571694	     13.36753337	     36.59765344	     36.16829215	     45.00000000	    -44.71764679	   3153.26904220	  -2631.47323752	    147.65343589	   -111.63429429	   -343.69673752	     55.74217480	     18.76559910	      5.14864265	     12.37451730	    -45.00000000	    -36.93122805	     45.00000000	    -45.00000000	  -2418.94591928	   -642.83084950	     16.98406620	    -61.14650049	     12.23603546	     45.82730606	      6.48799457	    -22.75698286
      5.65000000	     38.41817861	      4.82702086	     12.31594330	   -213.94561371	    883.36781813	     -4.31214019	     13.30678476	     36.67713914	     36.33639230	     45.00000000	    -44.23771177	   3153.07274838	  -2631.38029402	    147.62643018	   -111.79657904	   -343.52047783	     57.16604559	     18.73916372	      5.02219642	     12.38162529	    -45.00000000	    -37.12068206	     45.00000000	    -45.00000000	  -2419.01302400	   -642.75249045	     17.29684701	    -60.26113568	     12.34895298	     46.30492063	      6.36023970	    -22.76601715
      5.66000000	     38.46856896	      4.61093652	     12.16604967	   -212.34588486	    885.28235835	     -4.31722128	     12.96937329	     36.79877353	     36.51691806	     45.00000000	    -43.48482503	   3153.04334923	  -2631.21182699	    147.74491528	   -111.89854817	   -343.34481257	     58.38876342	     18.79491353	      4.96319499	     12.39376085	    -45.00000000	    -37.20959568	     45.00000000	    -45.00000000	  -2419.06250243	   -642.63794458	     17.60865302	    -59.29147610	     12.39515636	     46.66300120	      6.22301542	    -22.71811384
      5.67000000	     38.49611378	      4.64254115	     12.05332046	   -210.63381695	    887.26462185	     -4.31093917	     13.37373420	     36.91187563	     36.72020598	     45.00000000	    -43.28828316	   3152.68612243	  -2631.17276143	    147.54472879	   -112.03734570	   -343.19803627	     59.75568885	     18.65570618	      4.74998239	     12.40791433	    -45.00000000	    -37.56246282	     45.00000000	    -45.00000000	  -2419.16846600	   -642.50061846	     17.87173825	    -58.24465931	     12.48906677	     47.02082072	      6.21779526	    -22.85610069
      5.68000000	     38.57136769	      4.43639775	     11.87141650	   -208.79792562	    889.28877367	     -4.29266060	     12.83524246	     36.96711739	     36.88457119	     45.00000000	    -42.43568999	   3152.69869718	  -2630.94792509	    147.70512385	   -112.35431949	   -343.03397731	     60.90632884	     18.74098416	      4.72010365	     12.50581192	    -45.00000000	    -37.63570839	     45.00000000	    -45.00000000	  -2419.20685479	   -642.38276855	     18.25848302	    -57.33400875	     12.56981206	     47.20822242	      6.07829045	    -22.79037302
      5.69000000	     38.64678175	      4.37347822	     11.68619974	   -206.83413850	    891.31828602	     -4.26034360	     13.35313132	     37.14882491	     37.17748049	     45.00000000	    -42.24408354	   3152.29983223	  -2630.89196661	    147.42548255	   -112.42795023	   -342.92837785	     62.20291396	     18.63479037	      4.55336996	     12.47483319	    -45.00000000	    -37.95001075	     45.00000000	    -44.98165266	  -2419.31905557	   -642.30704914	     18.59394976	    -56.35793721	     12.58638649	     47.34288999	      6.08777046	    -22.88065248
